<?xml version="1.0" encoding="UTF-8" standalone="no"?>
<!-- Created with Inkscape (http://www.inkscape.org/) -->

<svg
   width="126.61352mm"
   height="126.61354mm"
   viewBox="0 0 126.61352 126.61354"
   version="1.1"
   id="svg1"
   xml:space="preserve"
   xmlns="http://www.w3.org/2000/svg"
   xmlns:svg="http://www.w3.org/2000/svg"><defs
     id="defs1" /><g
     id="layer1"
     transform="translate(-65.157426,-158.62393)"><g
       id="g7"><path
         style="font-size:1.07518px;line-height:1.25;font-family:'Swis721 Lt BT';-inkscape-font-specification:'Swis721 Lt BT';letter-spacing:0px;fill:#ecd8bd;fill-opacity:1;fill-rule:evenodd;stroke-width:9.21844;stroke-linecap:round;paint-order:stroke markers fill"
         d="m 78.734067,225.31038 -4.7e-4,-0.85779 0.60372,0.007 q 0.8965,0.002 1.33532,-0.3823 0.43314,-0.38595 0.43677,-1.18567 0.002,-0.90862 -0.44524,-1.29769 -0.44885,-0.39565 -1.51004,-0.40049 l -6.8851,-0.0242 -6e-4,-0.85779 7.08219,0.0242 q 1.22608,9.6e-4 1.87722,0.66906 0.65092,0.66301 0.64608,1.91449 -0.0112,1.19415 -0.62309,1.80137 -0.62429,0.6013 -1.84442,0.59645 z m -1.5768,-8.32146 q 1.88847,0.33757 3.15603,-0.36416 1.26092,-0.70413 1.53654,-2.24176 0.27584,-1.54439 -0.6618,-2.64779 -0.93763,-1.10338 -2.83277,-1.44214 -1.9007,-0.33999 -3.1696,0.369 -1.26879,0.70898 -1.54499,2.253 -0.27102,1.51936 0.68357,2.6323 0.95095,1.10582 2.83266,1.44229 z m -0.15853,0.87595 q -2.23849,-0.40046 -3.34165,-1.77208 -1.10338,-1.37175 -0.75615,-3.30994 0.34723,-1.94451 1.8581,-2.84863 1.51149,-0.90983 3.74973,-0.50937 2.23838,0.40047 3.34055,1.77839 1.10341,1.37162 0.75618,3.31624 -0.34724,1.93808 -1.85691,2.84246 -1.51026,0.90497 -3.74864,0.50329 z m 6.71935,-9.21276 -8.77187,-3.2544 0.3073,-0.82755 8.05115,2.98716 1.66152,-4.47831 0.72108,0.26736 z m 2.56938,-6.31342 -8.3795,-4.16145 0.39319,-0.79127 8.37953,4.16146 z m 1.33763,-2.73225 -7.83363,-5.11542 3.3477,-5.1268 0.64366,0.41983 -2.87901,4.40862 2.85589,1.86511 2.63243,-4.03124 0.62307,0.40649 -2.63229,4.03127 3.06856,2.00378 2.96574,-4.5417 0.64366,0.41982 z m 6.72249,-9.13714 -6.27532,-6.9394 0.63639,-0.57469 2.72232,3.01038 3.96679,-3.58713 -2.72246,-3.01027 0.64487,-0.58435 6.27521,6.9393 -0.64487,0.58435 -3.0376,-3.35894 -3.96667,3.58713 3.03762,3.35907 z m 4.98247,-10.29437 q 0.971523,1.65389 2.329713,2.15985 1.35505,0.49969 2.70212,-0.29037 1.35263,-0.79366 1.58055,-2.22517 0.22748,-1.4303 -0.74769,-3.08975 -0.97879,-1.66491 -2.34168,-2.1676 -1.36364,-0.50331 -2.71641,0.29279 -1.330723,0.78279 -1.554293,2.23184 -0.22266,1.44131 0.74769,3.08987 z m -0.76706,0.45129 q -1.1518,-1.96047 -0.82755,-3.6907 0.32425,-1.73022 2.02181,-2.72763 1.703243,-1.00176 3.372503,-0.44161 1.6747,0.55534 2.82649,2.51628 1.15177,1.9607 0.82149,3.69395 -0.32425,1.73025 -2.0275,2.73091 -1.69768,0.99813 -3.36691,0.43798 -1.669013,-0.56018 -2.821053,-2.51954 z m 8.268943,-9.79312 0.81182,-0.27707 1.90009,5.57964 q 0.50211,1.47315 1.32819,1.92974 0.83239,0.45493 2.17329,-0.002 1.34088,-0.45612 1.72284,-1.3248 0.38836,-0.8699 -0.10897,-2.34328 l -1.90009,-5.57964 0.8118,-0.27705 1.93906,5.69398 q 0.5759,1.68956 0.0242,2.83808 -0.55534,1.14816 -2.23244,1.71971 -1.67143,0.56984 -2.81004,0.004 -1.13484,-0.57347 -1.71208,-2.2686 z m 10.89011,3.40551 0.84813,-0.12467 q 0.1731,1.0913 0.94126,1.59472 0.76705,0.5033 1.99907,0.32181 1.0804,-0.15965 1.62533,-0.73438 0.55049,-0.58195 0.42345,-1.43635 -0.12108,-0.79124 -0.61099,-1.14332 -0.49484,-0.35086 -1.83839,-0.49242 l -0.91223,-0.0848 q -1.47411,-0.15113 -2.1031,-0.63397 -0.6231,-0.48637 -0.77432,-1.50387 -0.1657,-1.12518 0.55653,-1.92476 0.7235,-0.79974 2.09911,-1.00299 1.4579,-0.21414 2.38417,0.40651 0.93279,0.61946 1.14816,1.94958 l -0.86021,0.12714 q -0.16324,-0.98363 -0.83965,-1.42983 -0.6763,-0.45249 -1.75733,-0.29279 -1.01869,0.15 -1.50968,0.69083 -0.4912,0.54204 -0.36779,1.37696 0.0969,0.63518 0.51298,0.95216 0.41862,0.31093 1.29177,0.39925 l 1.12034,0.10898 q 1.66176,0.16458 2.39964,0.68599 0.73803,0.52024 0.89651,1.60113 0.18386,1.24424 -0.56621,2.08654 -0.74285,0.84207 -2.2195,1.05862 -1.65266,0.2432 -2.65891,-0.39804 -1.00782,-0.64847 -1.22016,-2.09294 z m 8.68732,1.76338 0.21301,-9.35358 6.12155,0.13902 -0.0112,0.76705 -5.26425,-0.12086 -0.0727,3.40988 4.81321,0.10898 -0.0112,0.74406 -4.8132,-0.10897 -0.0848,3.66395 5.42298,0.12332 -0.0112,0.76826 z m 13.09399,-3.478 q -0.54202,1.83985 0.0112,3.17698 0.56015,1.33097 2.05918,1.77343 1.50458,0.44401 2.7044,-0.36658 1.19899,-0.81062 1.74475,-2.65723 0.54686,-1.85182 -0.0112,-3.19077 -0.56502,-1.33909 -2.06972,-1.78323 -1.48028,-0.43676 -2.69158,0.39078 -1.20383,0.82393 -1.74475,2.65712 z m -0.85295,-0.25164 q 0.64366,-2.18091 2.12851,-3.12667 1.48463,-0.94611 3.37297,-0.38835 1.89453,0.56015 2.62736,2.15972 0.73922,1.60223 0.0969,3.78312 -0.64363,2.1808 -2.13443,3.12496 -1.48463,0.94611 -3.37916,0.38596 -1.88848,-0.55776 -2.62129,-2.15804 -0.73319,-1.60053 -0.0847,-3.78131 z m 8.42065,7.67344 4.25305,-8.33356 5.27282,2.69111 -0.34844,0.68478 -4.50905,-2.30127 -1.53894,3.01533 4.09031,2.08764 -0.34965,0.68478 -4.09031,-2.08764 -2.01539,3.94889 z m 10.51748,5.45431 1.90457,1.65266 q 1.055,0.91589 1.72949,0.96307 0.67874,0.0484 1.32009,-0.6872 0.62428,-0.71866 0.48031,-1.48378 -0.14395,-0.76465 -1.04652,-1.54681 l -1.95734,-1.69854 z m 6.69805,-4.54001 -1.57356,-1.36546 -2.21876,2.55705 1.51111,1.31137 q 1.09372,0.94853 1.77464,1.02717 0.68115,0.0727 1.28875,-0.62307 0.60372,-0.69689 0.44038,-1.34151 -0.15719,-0.64121 -1.22292,-1.56591 z m -7.84949,4.55851 6.13209,-7.06632 2.33623,2.02736 q 0.60978,0.52872 0.9062,0.90378 0.30246,0.37867 0.42708,0.75736 0.20696,0.57469 0.0848,1.17359 -0.10897,0.59524 -0.54928,1.08766 -0.45733,0.5287 -1.08161,0.68478 -0.61946,0.16099 -1.29299,-0.0605 0.52267,0.6981 0.46217,1.50277 -0.0484,0.80577 -0.67148,1.51983 -0.53717,0.61825 -1.23393,0.8203 -0.69204,0.20561 -1.39449,-0.0363 -0.28552,-0.0969 -0.75011,-0.43313 -0.46096,-0.34118 -1.42039,-1.17357 z m 6.15992,5.61245 7.26123,-5.90015 3.86129,4.75199 -0.59646,0.48394 -3.32059,-4.08656 -2.64707,2.15091 3.03614,3.73653 -0.57589,0.46943 -3.03615,-3.73666 -2.84427,2.3112 3.42066,4.20974 -0.59648,0.48515 z m 8.55034,5.43749 1.78067,3.15944 3.30257,-3.94622 z m -4.26343,-0.17781 9.89402,-1.50024 0.50453,0.89652 -6.40771,7.68663 -0.4428,-0.78519 1.98586,-2.33674 -2.05821,-3.65209 -3.03675,0.47183 z m 13.08878,4.70432 0.28071,0.81062 -5.57156,1.92368 q -1.47108,0.50813 -1.92417,1.33617 -0.45127,0.83481 0.0112,2.17329 0.46338,1.33895 1.33207,1.71728 0.87232,0.38472 2.34278,-0.12332 l 5.57155,-1.92357 0.28068,0.81061 -5.68575,1.96301 q -1.68703,0.58314 -2.83797,0.0363 -1.1518,-0.5505 -1.72915,-2.2252 -0.57711,-1.66912 -0.0112,-2.81004 0.56865,-1.13605 2.26136,-1.7215 z m -5.79645,13.71417 8.47485,-1.38662 -0.4682,-2.86471 0.75857,-0.12332 1.08042,6.60054 -0.7586,0.12332 -0.46822,-2.86472 -8.47473,1.38675 z m 0.67752,7.08208 4.10943,-0.0363 5.21403,-3.35399 0.004,0.98361 -4.40003,2.78716 4.45376,2.70683 0.004,0.98362 -5.27851,-3.25137 -4.10933,0.0363 z"
         id="text1-1-6-7-9-2"
         aria-label="JOLIE HOUSE OF BEAUTY" /><path
         style="font-size:0.820936px;line-height:1.25;font-family:'Swis721 Lt BT';-inkscape-font-specification:'Swis721 Lt BT';letter-spacing:0px;fill:#ecd8bd;fill-opacity:1;fill-rule:evenodd;stroke-width:6.84245;stroke-linecap:round;paint-order:stroke markers fill"
         d="m 86.120537,255.44677 2.58669,-1.61663 2.00316,-4.14269 0.38717,0.61944 -1.70713,3.4687 3.86842,-0.0112 0.38717,0.61947 -4.60185,-0.0112 -2.58669,1.61638 z m 3.6602,1.04775 q -0.784,0.63516 -0.93764,1.32927 -0.15135,0.69809 0.35569,1.32469 0.51298,0.63397 1.22123,0.63154 0.70658,0.004 1.49916,-0.64365 0.79124,-0.64003 0.94127,-1.33207 0.15494,-0.69444 -0.35934,-1.32855 -0.50692,-0.62549 -1.22231,-0.62549 -0.71139,-0.004 -1.49902,0.64244 z m -0.37627,-0.46459 q 0.97878,-0.79126 1.88994,-0.7598 0.91828,0.0363 1.60658,0.88319 0.69083,0.85418 0.53233,1.75903 -0.15135,0.90618 -1.13002,1.69805 -0.97152,0.78521 -1.88592,0.74891 -0.91465,-0.0363 -1.6089,-0.89167 -0.68841,-0.85055 -0.53596,-1.74946 0.15853,-0.89773 1.13244,-1.68742 z m 7.96696,5.02868 -3.48078,3.60574 -0.40289,-0.39077 0.55897,-0.57711 q -0.5372,0.14642 -0.99694,0.0242 -0.45612,-0.12108 -0.86143,-0.51177 -0.60975,-0.59043 -0.61217,-1.20623 0.007,-0.61583 0.62186,-1.25427 l 2.34121,-2.42529 0.4186,0.4041 -2.24623,2.32679 q -0.52024,0.53961 -0.53596,0.96306 -0.0242,0.42345 0.45854,0.88077 0.51903,0.50211 1.12154,0.47428 0.60978,-0.0242 1.14332,-0.57953 l 2.05956,-2.13346 z m -2.46485,4.42351 3.12205,-3.92021 0.43797,0.34965 -0.54565,0.68599 q 0.48395,-0.26012 0.93643,-0.2166 0.45733,0.0484 0.89651,0.39562 l 0.0484,0.0484 -0.37866,0.47549 -0.0605,-0.0484 q -0.58559,-0.4658 -1.15906,-0.35569 -0.56742,0.10898 -1.1167,0.80335 l -1.72116,2.16118 z m 6.177813,1.40173 q -0.49847,0.86627 -0.39201,1.57549 0.10897,0.71381 0.80335,1.10946 0.70657,0.40651 1.35978,0.15247 0.65574,-0.25891 1.1663,-1.14574 0.50816,-0.88077 0.40167,-1.58165 -0.0969,-0.70052 -0.80456,-1.10461 -0.70534,-0.40771 -1.36617,-0.15113 -0.65574,0.25891 -1.16632,1.14574 z m -1.725873,1.88922 3.468563,-6.01654 0.50329,0.29036 -1.41057,2.4466 q 0.49966,-0.30006 1.00782,-0.30127 0.50693,-0.002 1.02354,0.29764 0.88924,0.51297 1.05257,1.42278 0.17175,0.91105 -0.44643,1.97355 -0.60857,1.05863 -1.48994,1.36678 -0.87596,0.31093 -1.78274,-0.21167 -0.50331,-0.29037 -0.7598,-0.73074 -0.25044,-0.44403 -0.23109,-0.99816 l -0.433133,0.75133 z m 6.144893,0.65211 -0.009,0.0242 q -0.369,0.84328 -0.18274,1.52079 0.18745,0.67512 0.86867,0.97394 0.53961,0.23714 1.02961,0.10897 0.49118,-0.14283 0.79003,-0.60491 l 0.53114,0.23228 q -0.39322,0.66179 -1.09735,0.8566 -0.70173,0.19126 -1.48755,-0.15359 -0.93763,-0.41136 -1.18928,-1.27895 -0.25286,-0.86627 0.24317,-1.99447 0.50453,-1.14816 1.31743,-1.55829 0.81788,-0.40773 1.76748,0.009 0.92313,0.4041 1.16633,1.24845 0.24922,0.83965 -0.23593,1.94559 l -0.0848,0.17781 z m 0.19597,-0.42223 2.8732,1.2667 q 0.29883,-0.77431 0.10898,-1.37355 -0.18387,-0.60009 -0.80941,-0.87595 -0.63033,-0.27705 -1.22098,-0.0112 -0.5868,0.2686 -0.95096,0.99329 z m 7.12188,2.9771 q -0.24561,0.0112 -0.60856,-0.0605 -0.35813,-0.0605 -1.13244,-0.2686 -0.57348,-0.0363 -0.92676,0.13544 -0.35085,0.16816 -0.46821,0.52627 -0.13184,0.40773 0.0727,0.74406 0.21301,0.33636 0.71019,0.49848 0.75738,0.2468 1.33327,0.0112 0.58074,-0.24681 0.80093,-0.92434 z m -0.5517,1.81843 q -0.50813,0.28432 -1.01387,0.3436 -0.50572,0.0605 -1.01145,-0.10897 -0.72229,-0.23469 -1.02959,-0.7513 -0.30246,-0.51543 -0.10897,-1.14334 0.13184,-0.40773 0.42586,-0.64969 0.29522,-0.24077 0.72351,-0.294 0.48878,-0.0605 1.50882,0.1935 0.19732,0.0605 0.29882,0.0605 0.0605,0.007 0.16817,0.0242 0.72711,0.0847 0.8723,-0.36537 0.18139,-0.55534 -0.0242,-0.88441 -0.19485,-0.33151 -0.82754,-0.53717 -0.64003,-0.2092 -1.06953,-0.0484 -0.42586,0.16099 -0.62428,0.67027 l -0.5408,-0.18028 q 0.24922,-0.70655 0.89167,-0.95459 0.64242,-0.25164 1.50324,0.0242 0.8566,0.27826 1.17961,0.79003 0.32304,0.51056 0.0848,1.22112 l -0.84568,2.60023 q -0.0969,0.29643 -0.0484,0.3908 0.0363,0.0969 0.24682,0.15853 0.0605,0.0242 0.10897,0.0484 0.0484,0.007 0.0969,0.0363 l -0.13431,0.41136 q -0.10897,-0.0242 -0.2166,-0.0363 -0.10897,-0.0363 -0.19238,-0.0605 -0.34121,-0.10897 -0.45735,-0.33149 -0.12108,-0.22131 -0.0112,-0.54807 z m 6.53302,-2.81837 -1.08766,4.8922 -0.54686,-0.12221 0.17422,-0.78278 q -0.38474,0.40167 -0.83965,0.5384 -0.45006,0.14037 -1.00176,0.004 -0.82875,-0.18387 -1.15058,-0.71021 -0.3182,-0.52991 -0.12467,-1.39471 l 0.73198,-3.2906 0.565,0.12691 -0.70173,3.15703 q -0.16324,0.73197 0.0363,1.10098 0.20808,0.37021 0.85174,0.51298 0.70415,0.15606 1.20383,-0.18028 0.50571,-0.33997 0.67267,-1.09129 l 0.64487,-2.89484 z m 1.91389,-1.17962 -0.21167,1.42182 0.9195,0.1379 -0.0727,0.4658 -0.9195,-0.1379 -0.54201,3.61314 q -0.0484,0.3182 0.0112,0.43192 0.0605,0.12109 0.26859,0.1453 0.0848,0.0242 0.20315,0.0242 0.12108,-0.002 0.35932,-0.0242 l -0.0605,0.45733 q -0.21907,0.0363 -0.39443,0.0242 -0.17669,0.004 -0.32907,-0.0112 -0.4295,-0.0726 -0.57348,-0.3073 -0.14395,-0.2468 -0.0605,-0.81424 l 0.54081,-3.61314 -0.67512,-0.0969 0.0726,-0.46581 0.6763,0.0969 0.21167,-1.42196 z m 2.34132,7.74905 q -0.26858,0.56258 -0.6013,0.77795 -0.32786,0.22131 -0.83481,0.17915 -0.12332,-0.0242 -0.21525,-0.0363 -0.0969,-0.0242 -0.18387,-0.0605 l 0.0484,-0.52025 q 0.15606,0.0363 0.24802,0.0605 0.0969,0.0363 0.1453,0.0363 0.31456,0.0242 0.50692,-0.12333 0.19732,-0.14888 0.43677,-0.64365 l 0.28673,-0.60372 -1.48788,-5.22323 0.61581,0.0727 1.23141,4.40449 1.96203,-4.11631 0.59766,0.0605 z m 2.54846,0.5396 0.0112,-0.36659 q 0.16323,-0.10897 0.23471,-0.25164 0.0969,-0.1453 0.0848,-0.37266 l 0.0112,-0.33876 -0.2964,-0.004 0.0242,-0.85779 0.63639,0.0242 -0.0363,1.15422 q -0.0242,0.4295 -0.16928,0.65937 -0.15606,0.23472 -0.50453,0.36537 z m 6.48452,-0.44161 q -0.17781,0.59769 -0.47186,0.86384 -0.29037,0.26981 -0.79608,0.3049 -0.1222,0.009 -0.21772,-0.007 -0.0969,-0.002 -0.19351,-0.0363 l -0.0363,-0.52266 q 0.16099,0.007 0.25288,0.0112 0.0969,0.002 0.14754,0.0242 0.31458,-0.0242 0.48275,-0.19731 0.1731,-0.17669 0.33028,-0.70294 l 0.1888,-0.64122 -2.28616,-4.92632 0.61581,-0.0363 1.90408,4.1583 1.2948,-4.37245 0.59646,-0.0363 z m 2.83385,-3.72868 q 0.15359,0.99815 0.67633,1.47931 0.52871,0.48152 1.32419,0.35932 0.80577,-0.13184 1.16027,-0.7368 0.35205,-0.61341 0.19956,-1.61941 -0.15359,-1.00539 -0.67633,-1.48389 -0.52387,-0.48273 -1.32926,-0.35934 -0.79611,0.13185 -1.15421,0.74167 -0.35208,0.61823 -0.19956,1.61891 z m -0.59161,0.0847 q -0.18275,-1.24493 0.29521,-2.01586 0.48999,-0.77673 1.57149,-0.94369 1.08403,-0.17175 1.7878,0.42587 0.70779,0.58798 0.89894,1.83137 0.1814,1.23527 -0.30003,2.00705 -0.49242,0.77189 -1.58143,0.94127 -1.07919,0.17175 -1.78177,-0.41621 -0.69808,-0.58919 -0.88925,-1.82798 z m 8.51513,-4.27697 1.23128,4.85771 -0.54322,0.13678 -0.19597,-0.77673 q -0.16212,0.53233 -0.50693,0.85779 -0.33997,0.32422 -0.88804,0.46338 -0.82151,0.20808 -1.34707,-0.12108 -0.52145,-0.3291 -0.73922,-1.18931 l -0.82877,-3.26747 0.56139,-0.14754 0.79608,3.135 q 0.1888,0.72714 0.53599,0.96425 0.35084,0.23714 0.99207,0.0848 0.6981,-0.18633 0.99329,-0.70534 0.29764,-0.53356 0.10897,-1.27749 l -0.72955,-2.87428 z m 2.47128,4.44998 -1.59725,-4.75015 0.53112,-0.18028 0.27947,0.83239 q 0.0484,-0.54686 0.32788,-0.90497 0.28674,-0.35934 0.81788,-0.53961 l 0.0605,-0.0112 0.19485,0.57589 -0.0727,0.0112 q -0.71018,0.23835 -0.92676,0.77916 -0.21301,0.5384 0.0727,1.37453 l 0.88077,2.6184 z m 7.53226,-4.99274 0.52145,-0.25285 q 0.30367,0.81061 0.0242,1.50411 -0.28553,0.68841 -1.08645,1.07798 -0.91589,0.44645 -1.75106,0.0727 -0.82996,-0.37145 -1.35601,-1.45392 -0.54444,-1.11912 -0.32062,-2.01926 0.22988,-0.90255 1.16027,-1.35503 0.75859,-0.36782 1.45402,-0.18521 0.69808,0.18633 1.07314,0.86142 l -0.50087,0.24198 q -0.30248,-0.46095 -0.79972,-0.58679 -0.49121,-0.12825 -1.0054,0.10897 -0.6739,0.32789 -0.82514,1.0308 -0.14754,0.70052 0.27586,1.57405 0.43435,0.89531 1.08646,1.22292 0.65574,0.32667 1.33025,-0.002 0.52506,-0.25649 0.71745,-0.75251 0.1935,-0.49847 -0.007,-1.10946 z m 2.11436,0.83239 -3.6746,-5.89264 0.49966,-0.31215 1.43721,2.30431 q -0.002,-0.52749 0.22866,-0.94248 0.22987,-0.41618 0.68962,-0.70294 0.42466,-0.26495 0.86021,-0.31215 0.43677,-0.0484 0.78642,0.12109 0.18633,0.0969 0.36295,0.28794 0.17781,0.19485 0.5396,0.77674 l 1.61409,2.58839 -0.49968,0.31214 -1.60912,-2.58016 q -0.49605,-0.79609 -0.89167,-0.92071 -0.39683,-0.12938 -0.9812,0.23472 -0.59767,0.37021 -0.7126,0.97757 -0.10898,0.60009 0.28794,1.24338 l 1.56412,2.50842 z m 3.11467,-4.99286 q 0.62912,0.78882 1.32238,0.94854 0.69689,0.15606 1.32733,-0.34724 0.63761,-0.50694 0.64003,-1.21663 0.0112,-0.70779 -0.63155,-1.50362 -0.63518,-0.79611 -1.32516,-0.95096 -0.69326,-0.15965 -1.33072,0.35087 -0.62915,0.50329 -0.63276,1.21639 -0.0112,0.71139 0.63155,1.50398 z m -0.46702,0.37264 q -0.78639,-0.98483 -0.74527,-1.89563 0.0363,-0.91829 0.89409,-1.59993 0.859,-0.68477 1.76289,-0.51903 0.90499,0.15853 1.68935,1.14334 0.77794,0.97636 0.7368,1.89137 -0.0484,0.91465 -0.90497,1.60199 -0.85539,0.68115 -1.75323,0.52509 -0.89772,-0.16571 -1.67892,-1.14576 z m 1.76496,-6.11453 -0.59767,-0.63397 0.4186,-0.39443 0.59769,0.63397 z m 4.16701,4.41684 -3.43916,-3.64545 0.41863,-0.3944 3.43916,3.64531 z m 2.43292,-5.03655 0.38838,-0.4295 q 0.58677,0.6376 0.58556,1.38518 -0.0112,0.74649 -0.60251,1.40658 -0.68115,0.75738 -1.59484,0.72593 -0.91104,-0.0363 -1.80258,-0.83844 -0.92434,-0.83239 -1.05499,-1.75139 -0.13543,-0.92071 0.56742,-1.69177 0.565,-0.6267 1.28197,-0.71018 0.71624,-0.0848 1.319,0.39683 l -0.37264,0.41257 q -0.45371,-0.31456 -0.96064,-0.2444 -0.5021,0.0726 -0.88561,0.48878 -0.50211,0.55655 -0.3787,1.26469 0.12108,0.70534 0.8469,1.35492 0.73803,0.66663 1.46649,0.72471 0.73074,0.0605 1.23235,-0.49968 0.3908,-0.43435 0.38475,-0.96668 -0.002,-0.53356 -0.42103,-1.02595 z m 0.5021,-1.69224 0.0242,0.0242 q 0.75133,0.5299 1.45317,0.48394 0.69687,-0.0605 1.12879,-0.65695 0.3412,-0.48034 0.31216,-0.98726 -0.0363,-0.50814 -0.43434,-0.89651 l 0.33391,-0.47426 q 0.56863,0.51782 0.61946,1.24664 0.0484,0.72592 -0.44887,1.42655 -0.58919,0.83602 -1.49115,0.90981 -0.90015,0.0727 -1.90555,-0.6376 -1.02353,-0.7235 -1.26345,-1.60282 -0.23593,-0.88442 0.36295,-1.72986 0.58316,-0.82393 1.45692,-0.89288 0.87353,-0.0727 1.85883,0.62065 l 0.15718,0.12108 z m -0.37627,-0.27705 1.81601,-2.56128 q -0.69931,-0.44885 -1.32372,-0.38233 -0.6255,0.0484 -1.01991,0.61825 -0.39685,0.56258 -0.25409,1.19292 0.14037,0.62794 0.78158,1.13002 z"
         id="text1-1-6-7-9-2-3"
         aria-label="Your beauty, your choice" /><circle
         style="fill:none;fill-opacity:1;fill-rule:evenodd;stroke:#ecd8bd;stroke-width:1.45184;stroke-linecap:round;stroke-dasharray:none;stroke-opacity:1;paint-order:stroke markers fill"
         id="path16-2-2"
         cx="128.46419"
         cy="221.93069"
         r="62.580845" /><path
         style="fill:#ecd8bd;fill-opacity:1;fill-rule:evenodd;stroke-width:12.0986;stroke-linecap:round;paint-order:stroke markers fill"
         d="M 84.855867,254.39359 77.193317,217.4921"
         id="path2" /><path
         style="fill:none;fill-opacity:1;fill-rule:evenodd;stroke-width:12.0986;stroke-linecap:round;paint-order:stroke markers fill"
         d="m 171.3625,254.1919 7.05762,-26.01245"
         id="path3" /><circle
         style="fill:#ecd8bd;fill-opacity:1;fill-rule:evenodd;stroke:none;stroke-width:1.22391;stroke-linecap:round;stroke-dasharray:none;stroke-opacity:1;paint-order:stroke markers fill"
         id="path4"
         cx="78.402977"
         cy="236.73163"
         r="3.0246608" /><circle
         style="fill:#ecd8bd;fill-opacity:1;fill-rule:evenodd;stroke:none;stroke-width:1.22391;stroke-linecap:round;stroke-dasharray:none;stroke-opacity:1;paint-order:stroke markers fill"
         id="path4-2"
         cx="177.47801"
         cy="236.73163"
         r="3.0246608" /><path
         style="fill:#ecd8bd;fill-opacity:1;fill-rule:evenodd;stroke:none;stroke-width:0.0549686;stroke-linecap:round;stroke-dasharray:none;stroke-opacity:1;paint-order:stroke markers fill"
         d="m 125.58734,264.03886 c -6.87987,-0.43434 -13.78107,-2.64259 -19.63295,-6.2821 -4.5734,-2.84438 -9.040833,-7.04008 -12.131053,-11.3934 -4.01881,-5.66145 -6.51695,-12.01301 -7.51957,-19.1189 -0.38351,-2.71674 -0.34239,-8.48948 0.0727,-11.25196 1.75042,-11.46929 7.56674,-21.23918 16.702173,-28.05556 5.63337,-4.20343 12.16083,-6.85774 19.60548,-7.97265 2.61369,-0.39199 8.8278,-0.35447 11.54949,0.0727 6.60189,1.02596 12.35925,3.28344 17.89439,7.01818 6.47314,4.3676 11.9554,11.08478 15.0235,18.40784 4.27141,10.1954 4.42241,21.59898 0.42102,31.77732 -5.56368,14.15132 -18.28626,24.25234 -33.31276,26.4485 -1.61118,0.23591 -5.26666,0.51056 -6.37102,0.47789 -0.35329,-0.009 -1.391,-0.0605 -2.30697,-0.12333 z m 8.29569,-1.91666 c 4.82965,-0.75981 8.11297,-1.78384 12.33371,-3.84629 10.08773,-4.92922 17.64649,-13.87532 20.9522,-24.79774 1.2522,-4.13773 1.70977,-7.71834 1.60584,-12.56637 -0.0969,-4.31002 -0.43555,-6.6326 -1.54994,-10.47974 -4.18928,-14.46827 -16.3783,-25.59007 -31.15316,-28.42563 -3.30875,-0.63518 -3.15678,-0.63881 -4.07242,0.10897 -1.01266,0.82391 -2.63254,2.94917 -2.38136,3.12243 1.68013,1.15903 4.74665,4.27819 6.44217,6.55251 1.52696,2.04806 2.31737,3.33777 3.29929,5.38291 1.37828,2.87114 2.08579,5.43375 2.35874,8.54442 0.14754,1.67738 0.2323,2.00705 0.51661,2.00705 0.26255,0 1.15664,-0.80093 1.6724,-1.49721 l 0.42226,-0.56984 -0.0969,0.63155 c -0.0484,0.34723 -0.27947,1.08524 -0.50329,1.63972 l -0.40773,1.00903 0.3073,0.25046 c 0.16817,0.1379 1.65436,1.1917 3.30124,2.34264 1.64686,1.15058 3.78191,2.67466 4.74448,3.38594 1.67688,1.23901 1.75937,1.32431 1.96833,2.03366 0.17063,0.58074 0.18521,0.86384 0.0605,1.31005 -0.15494,0.57708 -0.92071,1.64553 -1.64553,2.29849 -0.60736,0.54686 -1.63854,1.9947 -1.63854,2.30007 0,0.15135 0.62552,0.92434 1.4025,1.73242 0.77189,0.80334 1.48303,1.61044 1.58151,1.79434 0.28192,0.52628 0.0605,1.22669 -0.67388,2.12295 -0.369,0.45128 -0.7598,0.93401 -0.8699,1.07314 -0.17915,0.22866 -0.0969,0.36297 0.89046,1.37368 1.47024,1.51075 1.46575,1.73495 -0.0727,3.38327 -1.09492,1.17598 -1.10461,1.79349 -0.0605,3.99279 0.85537,1.80572 0.98,2.37256 0.7864,3.58303 -0.46096,2.88636 -2.29618,4.31715 -6.25777,4.87901 -0.79973,0.10898 -1.69999,0.0969 -3.82644,-0.0847 -3.10899,-0.2577 -5.20604,-0.15606 -7.73284,0.37505 -5.01344,1.05258 -10.51421,3.90132 -14.40126,7.45797 -1.41265,1.29261 -2.95354,2.39348 -4.38346,3.13209 -1.29419,0.66906 -3.64036,1.51874 -4.22013,1.52952 -0.28311,0.007 -0.27705,0.0242 0.0727,0.21301 0.70294,0.38112 5.01817,1.74693 6.67652,2.11244 1.43501,0.31577 3.68005,0.66664 5.48951,0.85779 1.37853,0.14529 7.60764,-0.0363 9.05415,-0.26255 z m -21.87785,-4.4799 c 2.36854,-0.48879 4.37449,-1.62943 6.20418,-3.52796 4.2926,-4.45411 5.86214,-11.2325 4.76603,-20.58377 -0.40531,-3.46168 -1.96797,-12.86848 -2.1993,-13.24271 -0.0484,-0.0848 -0.92192,-0.21526 -1.93918,-0.30246 -5.91515,-0.50571 -9.73094,-2.42942 -12.10821,-6.10424 -1.42617,-2.20463 -2.07575,-4.72246 -2.07575,-8.04561 0,-2.49631 0.26134,-4.17222 0.99935,-6.40235 1.13605,-3.43371 3.00482,-6.38737 5.97769,-9.44457 3.62984,-3.73291 7.56602,-6.38555 11.98721,-8.07839 l 1.4971,-0.57348 -0.85537,0.0848 c -7.83655,0.79247 -15.16202,3.76306 -21.38703,8.67425 -1.87056,1.47568 -5.281183,4.92209 -6.646863,6.71657 -5.77795,7.59226 -8.57698,15.72931 -8.58315,24.95248 -0.002,4.24226 0.44401,7.5227 1.54354,11.34466 1.47315,5.11819 4.10762,10.18717 7.45155,14.33798 3.045,3.7796 7.686033,7.69037 11.723603,9.87927 1.24978,0.67751 1.69488,0.71623 3.64507,0.31335 z m 8.42585,-40.04566 c -0.0484,-0.45128 -0.26133,-2.32778 -0.47186,-4.17063 -0.48394,-4.2367 -0.54564,-9.40804 -0.14641,-12.24638 1.01871,-7.24345 3.64473,-12.84234 8.28116,-17.65447 0.93281,-0.96788 1.66358,-1.79217 1.62425,-1.83148 -0.12938,-0.12937 -3.862,0.90134 -5.13008,1.41602 -3.39681,1.37817 -5.74914,2.98572 -8.34926,5.70584 -3.2572,3.40746 -5.49823,7.63607 -6.46853,12.20548 -0.43071,2.02615 -0.47549,6.42983 -0.0848,8.24244 0.89649,4.1565 2.87863,6.72007 6.29528,8.14238 1.00661,0.41863 3.32423,0.98121 4.12782,1.00056 l 0.41255,0.009 z"
         id="path5" /></g></g></svg>
